<?xml version="1.0" encoding="utf-8"?>
<!-- Generator: Adobe Illustrator 16.0.0, SVG Export Plug-In . SVG Version: 6.00 Build 0)  -->
<!DOCTYPE svg PUBLIC "-//W3C//DTD SVG 1.1//EN" "http://www.w3.org/Graphics/SVG/1.1/DTD/svg11.dtd">
<svg version="1.1" xmlns="http://www.w3.org/2000/svg" xmlns:xlink="http://www.w3.org/1999/xlink" x="0px" y="0px"
	 width="130.025px" height="129.989px" viewBox="131.427 -205.185 130.025 129.989"
	 enable-background="new 131.427 -205.185 130.025 129.989" xml:space="preserve">
<g id="Layer_1">
</g>
<g id="Layer_5">
</g>
<g id="Layer_2">
</g>
<g id="Layer_3" display="none">
</g>
<g id="Layer_3_copy">
</g>
<g id="Insta_Logo">
	<g>
		<path fill="#FFFFF8" d="M233.847-168.496c-0.872-2.24-1.912-3.84-3.592-5.52c-1.68-1.68-3.276-2.72-5.516-3.59
			c-1.692-0.657-4.232-1.439-8.912-1.653c-5.062-0.23-6.58-0.276-19.396-0.276c-1.602,0-3.028-0.002-4.306,0v-0.012
			c-8.946,0.01-10.662,0.07-15.09,0.27c-4.68,0.215-7.221,0.995-8.913,1.655c-2.24,0.872-3.84,1.912-5.52,3.592
			c-1.68,1.68-2.722,3.28-3.592,5.52c-0.657,1.692-1.439,4.232-1.653,8.912c-0.23,5.06-0.276,6.572-0.276,19.39
			s0.046,14.337,0.276,19.398c0.213,4.68,0.996,7.22,1.653,8.91c0.872,2.24,1.912,3.837,3.592,5.517
			c1.68,1.681,3.28,2.72,5.52,3.591c1.693,0.656,4.233,1.438,8.913,1.654c5.06,0.23,6.579,0.28,19.396,0.28
			c12.816,0,14.336-0.05,19.396-0.28c4.68-0.214,7.222-0.994,8.912-1.654c2.24-0.869,3.836-1.91,5.516-3.59
			c1.68-1.679,2.722-3.273,3.592-5.514c0.657-1.689,1.439-4.23,1.653-8.91c0.229-5.061,0.28-6.58,0.28-19.39
			c0-12.81-0.051-14.33-0.28-19.39C235.286-164.266,234.504-166.806,233.847-168.496z M196.431-115.541
			c-13.613,0-24.65-11.031-24.65-24.645c0-13.613,11.037-24.65,24.649-24.65h0h0.001h0c13.613,0,24.647,11.037,24.647,24.65
			C221.077-126.572,210.044-115.541,196.431-115.541z M222.053-160.047c-3.181,0-5.76-2.58-5.76-5.76
			c0-3.181,2.579-5.758,5.76-5.758v-0.002c3.181,0,5.76,2.58,5.76,5.76C227.813-162.627,225.233-160.047,222.053-160.047z"/>
		<circle fill="#FFFFF8" cx="196.431" cy="-140.185" r="16"/>
		<path fill="#FFFFF8" d="M261.323-177.013c-0.41-5.22-1.305-8.73-3.127-12.44c-1.494-3.037-3.154-5.305-5.564-7.624
			c-4.301-4.108-9.561-6.608-15.829-7.512c-3.037-0.438-3.642-0.569-19.183-0.596h-21.159c-27.142,0-35.08,0.028-36.623,0.156
			c-5.57,0.463-9.036,1.34-12.812,3.22c-2.91,1.445-5.205,3.12-7.47,5.468c-4.125,4.282-6.625,9.55-7.53,15.813
			c-0.44,3.04-0.568,3.66-0.594,19.188c-0.01,5.176,0,11.988,0,21.125c0,27.12,0.03,35.051,0.16,36.59
			c0.45,5.42,1.3,8.83,3.1,12.561c3.44,7.14,10.01,12.5,17.75,14.5c2.68,0.689,5.64,1.07,9.44,1.25c1.61,0.07,18.02,0.12,34.44,0.12
			c16.419,0,32.839-0.021,34.41-0.101c4.4-0.207,6.955-0.55,9.78-1.279c7.79-2.01,14.24-7.291,17.75-14.53
			c1.765-3.64,2.66-7.181,3.065-12.317c0.088-1.119,0.125-18.977,0.125-36.81C261.452-158.069,261.411-175.893,261.323-177.013z
			 M244.136-120.397c-0.24,5.108-1.05,8.597-2.23,11.649c-1.229,3.156-2.869,5.834-5.539,8.502c-2.668,2.67-5.342,4.314-8.498,5.541
			c-3.053,1.187-6.545,1.996-11.655,2.229c-5.12,0.233-6.751,0.29-19.788,0.29c-13.035,0-14.67-0.057-19.79-0.29
			c-5.109-0.233-8.598-1.043-11.652-2.229c-3.155-1.227-5.833-2.871-8.5-5.541c-2.669-2.668-4.309-5.346-5.536-8.502
			c-1.186-3.053-1.995-6.541-2.23-11.65c-0.232-5.12-0.29-6.751-0.29-19.787s0.06-14.673,0.289-19.793
			c0.23-5.108,1.04-8.597,2.23-11.65c1.23-3.156,2.87-5.834,5.54-8.502c2.668-2.669,5.346-4.309,8.503-5.535
			c3.052-1.187,6.54-1.996,11.65-2.23c5.119-0.233,6.755-0.29,19.785-0.29c-0.002,0-0.005,0-0.007,0h0.015c-0.002,0-0.005,0-0.007,0
			c13.033,0,14.664,0.057,19.783,0.29c5.109,0.234,8.6,1.043,11.66,2.23c3.16,1.225,5.83,2.865,8.5,5.535
			c2.67,2.668,4.31,5.346,5.539,8.503c1.181,3.052,1.99,6.54,2.23,11.65c0.23,5.12,0.29,6.756,0.29,19.792
			S244.366-125.517,244.136-120.397z"/>
	</g>
</g>
<g id="Mail">
</g>
</svg>
