<?xml version="1.0" encoding="utf-8"?>
<!-- Generator: Adobe Illustrator 16.0.0, SVG Export Plug-In . SVG Version: 6.00 Build 0)  -->
<!DOCTYPE svg PUBLIC "-//W3C//DTD SVG 1.1 Tiny//EN" "http://www.w3.org/Graphics/SVG/1.1/DTD/svg11-tiny.dtd">
<svg version="1.1" baseProfile="tiny" xmlns="http://www.w3.org/2000/svg" xmlns:xlink="http://www.w3.org/1999/xlink" x="0px"
	 y="0px" width="130.03px" height="129.99px" viewBox="-65.01 -205.19 130.03 129.99" xml:space="preserve">
<g id="Layer_1">
</g>
<g id="Layer_5">
</g>
<g id="Layer_2">
</g>
<g id="Layer_3" display="none">
</g>
<g id="Layer_3_copy">
</g>
<g id="Insta_Logo">
</g>
<g id="Mail">
	<g>
		<path fill="#FFFFF8" d="M0-140.07c-0.85,0-1.7-0.24-2.44-0.72L-45-168.22v59.81h90v-59.81L2.44-140.78
			C1.7-140.31,0.85-140.07,0-140.07z"/>
		<polygon fill="#FFFFF8" points="34.21,-171.97 -34.21,-171.97 0,-149.92 		"/>
		<path fill="#FFFFF8" d="M64.88-177.01c-0.41-5.22-1.3-8.73-3.13-12.44c-1.49-3.04-3.15-5.31-5.56-7.62
			c-4.3-4.11-9.56-6.61-15.83-7.51c-3.04-0.44-3.64-0.57-19.18-0.6H0.02c-27.14,0-35.08,0.03-36.62,0.16
			c-5.57,0.46-9.04,1.34-12.81,3.22c-2.91,1.45-5.21,3.12-7.47,5.47c-4.13,4.28-6.63,9.55-7.53,15.81
			c-0.44,3.04-0.57,3.66-0.59,19.19c-0.01,5.18,0,11.99,0,21.13c0,27.12,0.03,35.05,0.16,36.59c0.45,5.42,1.3,8.83,3.1,12.56
			c3.44,7.14,10.01,12.5,17.75,14.5c2.68,0.69,5.64,1.07,9.44,1.25c1.61,0.07,18.02,0.12,34.44,0.12c16.42,0,32.84-0.02,34.41-0.1
			c4.4-0.21,6.96-0.55,9.78-1.28c7.79-2.01,14.24-7.29,17.75-14.53c1.76-3.64,2.66-7.18,3.07-12.32c0.09-1.12,0.13-18.98,0.13-36.81
			C65.01-158.07,64.97-175.89,64.88-177.01z M54-103.91c0,2.49-2.01,4.5-4.5,4.5h-99c-2.49,0-4.5-2.01-4.5-4.5v-72.56
			c0-0.06,0.02-0.12,0.02-0.18c0.01-0.19,0.03-0.39,0.06-0.58c0.02-0.1,0.04-0.21,0.06-0.31c0.02-0.07,0.02-0.14,0.04-0.21
			c0.03-0.1,0.07-0.19,0.11-0.28c0.04-0.1,0.07-0.2,0.11-0.29c0.08-0.18,0.18-0.35,0.28-0.51c0.04-0.06,0.07-0.13,0.11-0.18
			c0.15-0.22,0.32-0.43,0.51-0.61c0.04-0.04,0.09-0.08,0.13-0.12c0.15-0.14,0.31-0.27,0.48-0.39c0.08-0.06,0.16-0.1,0.24-0.15
			c0.15-0.09,0.3-0.17,0.46-0.25c0.09-0.04,0.19-0.08,0.28-0.12c0.17-0.06,0.34-0.12,0.52-0.16c0.09-0.02,0.18-0.05,0.27-0.07
			c0.27-0.05,0.55-0.08,0.83-0.08h99c0.28,0,0.56,0.03,0.83,0.08c0.09,0.02,0.18,0.04,0.27,0.07c0.18,0.04,0.35,0.1,0.52,0.16
			c0.1,0.04,0.19,0.08,0.28,0.12c0.16,0.07,0.31,0.16,0.46,0.25c0.08,0.05,0.16,0.1,0.24,0.15c0.17,0.12,0.33,0.25,0.48,0.39
			c0.04,0.04,0.09,0.07,0.13,0.12c0.19,0.19,0.36,0.39,0.51,0.61c0.04,0.06,0.07,0.12,0.11,0.18c0.1,0.17,0.2,0.33,0.28,0.51
			c0.04,0.1,0.08,0.19,0.11,0.29c0.04,0.09,0.08,0.18,0.11,0.28c0.02,0.07,0.03,0.14,0.04,0.21c0.03,0.1,0.05,0.21,0.06,0.31
			c0.03,0.19,0.05,0.39,0.06,0.58c0,0.06,0.02,0.12,0.02,0.18V-103.91z"/>
	</g>
</g>
</svg>
